<svg id="icn-trash" xmlns="http://www.w3.org/2000/svg" width="33" height="33" viewBox="0 0 33 33">
  <g id="グループ_42" data-name="グループ 42" transform="translate(5.775 3.3)">
    <path id="パス_27" data-name="パス 27" d="M7.825,9.775H8.65v18.15A2.431,2.431,0,0,0,11.125,30.4h13.2A2.431,2.431,0,0,0,26.8,27.925V9.775h.825a.779.779,0,0,0,.825-.825.779.779,0,0,0-.825-.825h-4.95V6.475A2.431,2.431,0,0,0,20.2,4H15.25a2.431,2.431,0,0,0-2.475,2.475v1.65H7.825A.779.779,0,0,0,7,8.95.779.779,0,0,0,7.825,9.775Zm6.6-3.3a.779.779,0,0,1,.825-.825H20.2a.779.779,0,0,1,.825.825v1.65h-6.6Zm10.725,3.3v18.15a.779.779,0,0,1-.825.825h-13.2a.779.779,0,0,1-.825-.825V9.775Z" transform="translate(-7 -4)" fill="#4c4e57"/>
    <path id="パス_28" data-name="パス 28" d="M19.825,28.025a.779.779,0,0,0,.825-.825V14.825a.825.825,0,1,0-1.65,0V27.2A.779.779,0,0,0,19.825,28.025Z" transform="translate(-9.1 -5.75)" fill="#4c4e57"/>
    <path id="パス_29" data-name="パス 29" d="M24.825,28.025a.779.779,0,0,0,.825-.825V14.825a.825.825,0,1,0-1.65,0V27.2A.779.779,0,0,0,24.825,28.025Z" transform="translate(-9.975 -5.75)" fill="#4c4e57"/>
    <path id="パス_30" data-name="パス 30" d="M14.825,28.025a.779.779,0,0,0,.825-.825V14.825a.825.825,0,0,0-1.65,0V27.2A.779.779,0,0,0,14.825,28.025Z" transform="translate(-8.225 -5.75)" fill="#4c4e57"/>
  </g>
  <rect id="長方形_239" data-name="長方形 239" width="33" height="33" fill="none"/>
</svg>
